<svg width="21" height="21" viewBox="0 0 21 21" fill="none" xmlns="http://www.w3.org/2000/svg">
<path d="M10.5 21C16.299 21 21 16.299 21 10.5C21 4.70101 16.299 0 10.5 0C4.70101 0 0 4.70101 0 10.5C0 16.299 4.70101 21 10.5 21Z" fill="#0064B0"/>
<path d="M14.3724 16.0623V14.202H9.77913C9.92063 13.5552 11.0386 12.5788 11.6061 12.058C12.947 10.8445 14.1612 9.94585 14.1612 8.03892C14.1612 5.76897 12.3158 4.63103 10.3614 4.63103C8.86418 4.63103 7.87071 5.07553 6.79871 6.00233L7.9648 7.54625C8.23372 7.24992 8.9116 6.53796 9.89099 6.53796C11.1045 6.53796 11.7335 7.34178 11.7335 8.3034C11.7335 9.3754 10.9304 10.18 10.1903 10.8223C8.70861 12.1143 7.43065 13.2967 7.1469 14.5895V16.0556L14.3724 16.0623Z" fill="white"/>
</svg>
