<svg width="21" height="21" viewBox="0 0 21 21" fill="none" xmlns="http://www.w3.org/2000/svg">
<g clip-path="url(#clip0_202_434)">
<path d="M19.9502 0H1.04978C0.470002 0 0 0.470001 0 1.04978V2.1003C0 2.68007 0.470002 3.15007 1.04978 3.15007H19.9502C20.53 3.15007 21 2.68007 21 2.1003V1.04978C21 0.470001 20.53 0 19.9502 0Z" fill="#5291CE"/>
<path d="M19.9502 17.8499H1.04978C0.470002 17.8499 0 18.3199 0 18.8997V19.9502C0 20.53 0.470002 21 1.04978 21H19.9502C20.53 21 21 20.53 21 19.9502V18.8997C21 18.3199 20.53 17.8499 19.9502 17.8499Z" fill="#5291CE"/>
<path d="M7.75148 7.96038V14.5947H5.96382V7.96038H3.47681V6.50462H10.2378V7.96038H7.75148ZM13.616 14.8125C13.2071 14.8128 12.7995 14.7666 12.401 14.6747L12.6537 13.2997C13.0092 13.4314 13.3858 13.4972 13.7649 13.4938C14.8992 13.4938 15.7245 12.5892 15.8393 10.9623C15.5644 11.2023 15.037 11.5127 14.1665 11.5127C12.8263 11.5127 11.7483 10.6296 11.7483 9.11684C11.7483 7.5018 12.8263 6.30978 14.5213 6.30978C16.7335 6.30978 17.524 7.84555 17.524 9.98808C17.5232 12.7959 16.2053 14.8125 13.616 14.8125ZM14.5895 7.58181C13.7871 7.58181 13.3752 8.23524 13.3752 8.93385C13.3752 9.69026 13.8798 10.2407 14.6813 10.2407C15.1999 10.2407 15.6096 10.0459 15.7697 9.7962C15.8615 9.6584 15.8615 9.33762 15.8615 9.09684C15.8615 8.32636 15.4148 7.58181 14.5895 7.58181Z" fill="#25303B"/>
</g>
<defs>
<clipPath id="clip0_202_434">
<rect width="21" height="21" fill="white"/>
</clipPath>
</defs>
</svg>
