<svg width="21" height="21" viewBox="0 0 21 21" fill="none" xmlns="http://www.w3.org/2000/svg">
<g clip-path="url(#clip0_202_430)">
<path d="M19.9502 0H1.04978C0.470002 0 0 0.470001 0 1.04978V2.1003C0 2.68007 0.470002 3.15007 1.04978 3.15007H19.9502C20.53 3.15007 21 2.68007 21 2.1003V1.04978C21 0.470001 20.53 0 19.9502 0Z" fill="#662483"/>
<path d="M19.9502 17.8499H1.04978C0.470002 17.8499 0 18.3199 0 18.8997V19.9502C0 20.53 0.470002 21 1.04978 21H19.9502C20.53 21 21 20.53 21 19.9502V18.8997C21 18.3199 20.53 17.8499 19.9502 17.8499Z" fill="#662483"/>
<path d="M7.84334 7.95742V14.5947H6.05568V7.95742H3.56866V6.5024H10.3296V7.95742H7.84334ZM14.3606 14.7865C13.4204 14.7865 12.6996 14.5806 12.0802 14.2027L12.7337 12.9433C13.1782 13.253 13.639 13.4619 14.2694 13.4619C14.8999 13.4619 15.6896 13.0841 15.6896 12.1328C15.6896 11.5483 15.3007 10.746 13.8109 10.7252C13.3523 10.7252 12.8137 10.7141 12.5514 10.7141L12.8722 6.50907H17.1239V7.85296H14.2116L14.0968 9.38799C14.1427 9.38799 14.245 9.39985 14.3265 9.39985C16.5379 9.50282 17.4314 10.7519 17.4314 11.9661C17.4314 13.5145 16.2053 14.7865 14.3606 14.7865Z" fill="#25303B"/>
</g>
<defs>
<clipPath id="clip0_202_430">
<rect width="21" height="21" fill="white"/>
</clipPath>
</defs>
</svg>
