<svg width="21" height="21" viewBox="0 0 21 21" fill="none" xmlns="http://www.w3.org/2000/svg">
<g clip-path="url(#clip0_202_436)">
<path d="M19.9502 0H1.04978C0.470002 0 0 0.470001 0 1.04978V2.1003C0 2.68007 0.470002 3.15007 1.04978 3.15007H19.9502C20.53 3.15007 21 2.68007 21 2.1003V1.04978C21 0.470001 20.53 0 19.9502 0Z" fill="#F28E42"/>
<path d="M19.9502 17.8499H1.04978C0.470002 17.8499 0 18.3199 0 18.8997V19.9502C0 20.53 0.470002 21 1.04978 21H19.9502C20.53 21 21 20.53 21 19.9502V18.8997C21 18.3199 20.53 17.8499 19.9502 17.8499Z" fill="#F28E42"/>
<path d="M5.99943 7.9609V14.5952H4.21177V7.9609H1.72498V6.50544H8.48563V7.9609H5.99943ZM12.5167 14.5952V8.23583C12.0241 8.62522 11.2447 9.00342 10.706 9.24412L10.1562 8.00631C11.0039 7.65115 12.0241 7.11315 12.8258 6.50544H14.2353V14.5952H12.5167ZM17.5567 14.5952V8.23583C17.0641 8.62522 16.2847 9.00342 15.7461 9.24412L15.1962 8.00631C16.044 7.65115 17.0641 7.11315 17.8658 6.50544H19.2753V14.5952H17.5567Z" fill="#25303B"/>
</g>
<defs>
<clipPath id="clip0_202_436">
<rect width="21" height="21" fill="white"/>
</clipPath>
</defs>
</svg>
