<svg width="21" height="21" viewBox="0 0 21 21" fill="none" xmlns="http://www.w3.org/2000/svg">
<g clip-path="url(#clip0_202_433)">
<path d="M19.9502 0H1.04978C0.470002 0 0 0.470001 0 1.04978V2.1003C0 2.68007 0.470002 3.15007 1.04978 3.15007H19.9502C20.53 3.15007 21 2.68007 21 2.1003V1.04978C21 0.470001 20.53 0 19.9502 0Z" fill="#9F9825"/>
<path d="M19.9502 17.8499H1.04978C0.470002 17.8499 0 18.3199 0 18.8997V19.9502C0 20.53 0.470002 21 1.04978 21H19.9502C20.53 21 21 20.53 21 19.9502V18.8997C21 18.3199 20.53 17.8499 19.9502 17.8499Z" fill="#9F9825"/>
<path d="M7.73446 7.95742V14.5947H5.9468V7.95742H3.45978V6.50166H10.2237V7.95742H7.73446ZM14.6532 14.8095C12.8544 14.8095 11.838 13.7323 11.838 12.5062C11.838 11.4298 12.4447 10.7534 13.2241 10.3518C12.5248 9.91695 12.0899 9.36725 12.0899 8.53009C12.0899 7.18916 13.3041 6.26088 14.691 6.26088C16.1112 6.26088 17.2921 6.96024 17.2921 8.3471C17.2921 9.10351 16.9024 9.74508 16.1468 10.1992C16.8876 10.5541 17.544 11.2423 17.544 12.3077C17.5403 13.8471 16.3142 14.8095 14.6532 14.8095ZM14.5154 10.9141C13.9879 11.1201 13.4612 11.6928 13.4612 12.3217C13.4612 12.9885 13.8968 13.6167 14.6762 13.6167C15.4437 13.6167 15.8675 13.0781 15.8675 12.4373C15.8675 11.7054 15.2029 11.2608 14.5154 10.9141V10.9141ZM14.7103 7.43216C14.0798 7.43216 13.679 7.82184 13.679 8.38341C13.679 9.05017 14.3458 9.46059 14.8592 9.6784C15.2829 9.48356 15.7415 8.95608 15.7415 8.4523C15.7415 7.88852 15.3748 7.42994 14.7103 7.42994V7.43216Z" fill="#25303B"/>
</g>
<defs>
<clipPath id="clip0_202_433">
<rect width="21" height="21" fill="white"/>
</clipPath>
</defs>
</svg>
