<svg width="21" height="21" viewBox="0 0 21 21" fill="none" xmlns="http://www.w3.org/2000/svg">
<path d="M10.5 21C16.299 21 21 16.299 21 10.5C21 4.70101 16.299 0 10.5 0C4.70101 0 0 4.70101 0 10.5C0 16.299 4.70101 21 10.5 21Z" fill="#D5C900"/>
<path d="M5.59488 16.0519V7.30992C4.91774 7.84555 3.84648 8.36562 3.10564 8.69604L2.34998 6.9921C3.51533 6.50388 4.91774 5.76303 6.02086 4.9281H7.95817V16.0519H5.59488ZM13.4234 16.0519H10.886C10.886 14.5872 11.2801 13.6412 12.2566 11.8291L14.9651 6.78836H9.56284V4.92958H17.3417V6.74169C14.9043 10.9793 13.4234 14.3035 13.4234 16.0519V16.0519Z" fill="#25303B"/>
</svg>
