<svg width="21" height="21" viewBox="0 0 21 21" fill="none" xmlns="http://www.w3.org/2000/svg">
<path d="M10.5 21C16.299 21 21 16.299 21 10.5C21 4.70101 16.299 0 10.5 0C4.70101 0 0 4.70101 0 10.5C0 16.299 4.70101 21 10.5 21Z" fill="#8D5E2A"/>
<path d="M9.02719 16.0497V4.92143H7.08765C5.98379 5.75637 4.58211 6.49721 3.41528 6.98617L4.17243 8.69011C4.91327 8.32784 5.98379 7.83814 6.66241 7.30251V16.0497H9.02719ZM15.9571 16.0497V4.92143H14.0175C12.9144 5.75637 11.512 6.49721 10.3451 6.98617L11.1023 8.69011C11.8431 8.32784 12.9144 7.83814 13.5923 7.30251V16.0497H15.9571Z" fill="white"/>
</svg>
