<svg width="21" height="21" viewBox="0 0 21 21" fill="none" xmlns="http://www.w3.org/2000/svg">
<path d="M16.2749 0H4.72511C2.1155 0 0 2.1155 0 4.72511V16.2749C0 18.8845 2.1155 21 4.72511 21H16.2749C18.8845 21 21 18.8845 21 16.2749V4.72511C21 2.1155 18.8845 0 16.2749 0Z" fill="#E3051C"/>
<path d="M13.1471 16.0519L12.4536 13.9412H8.34193L7.6485 16.0519H5.22223L9.16056 4.91328H11.8239L15.78 16.0519H13.1471ZM10.9097 9.18648C10.695 8.52367 10.5369 7.84386 10.437 7.15434H10.4059C10.3585 7.56403 10.1385 8.47749 9.90141 9.18648L8.95609 12.098H11.8535L10.9097 9.18648Z" fill="white"/>
</svg>
