<svg width="21" height="21" viewBox="0 0 21 21" fill="none" xmlns="http://www.w3.org/2000/svg">
<path d="M16.2749 0H4.72511C2.1155 0 0 2.1155 0 4.72511V16.2749C0 18.8845 2.1155 21 4.72511 21H16.2749C18.8845 21 21 18.8845 21 16.2749V4.72511C21 2.1155 18.8845 0 16.2749 0Z" fill="#00814F"/>
<path d="M9.31463 16.0519H6.18011V4.92958H9.42502C12.6707 4.92958 16.1667 5.65413 16.1667 10.2385C16.1682 15.1066 12.7181 16.0519 9.31463 16.0519ZM9.77173 6.86541H8.6375V14.1257H9.85323C11.995 14.1257 13.6315 13.3071 13.6315 10.3926C13.6315 7.27658 11.2838 6.86763 9.77173 6.86763V6.86541Z" fill="white"/>
</svg>
