<svg width="21" height="21" viewBox="0 0 21 21" fill="none" xmlns="http://www.w3.org/2000/svg">
<g clip-path="url(#clip0_202_415)">
<path fill-rule="evenodd" clip-rule="evenodd" d="M4.72567 1.36649C2.87044 1.36649 1.36649 2.87044 1.36649 4.72567V16.2743C1.36649 18.1296 2.87044 19.6335 4.72567 19.6335H16.2743C18.1296 19.6335 19.6335 18.1296 19.6335 16.2743V4.72567C19.6335 2.87044 18.1296 1.36649 16.2743 1.36649H4.72567ZM0 4.72567C0 2.11575 2.11575 0 4.72567 0H16.2743C18.8842 0 21 2.11575 21 4.72567V16.2743C21 18.8842 18.8842 21 16.2743 21H4.72567C2.11575 21 0 18.8842 0 16.2743V4.72567Z" fill="#25303B"/>
<path d="M18.0344 8.8731C18.0344 7.45587 16.9839 6.79874 15.96 6.79874H13.9916C13.6212 6.79874 13.4145 7.08693 13.4145 7.40253V13.5723C13.4145 13.9427 13.7849 14.1227 14.1227 14.1227C14.5168 14.1227 14.8317 13.9397 14.8317 13.5723V11.1868H15.4355L16.6164 13.8375C16.6618 13.9296 16.7334 14.0061 16.8223 14.0574C16.9112 14.1087 17.0133 14.1325 17.1157 14.1257C17.535 14.1257 18.1396 13.7323 17.9032 13.2604L16.7742 10.8978C17.4565 10.5556 18.0336 9.95251 18.0336 8.87607L18.0344 8.8731ZM12.7055 13.4404C12.7055 13.1248 12.4951 12.7848 12.1276 12.7848H10.1325V10.9734H11.7861C11.8638 10.9722 11.9405 10.9555 12.0118 10.9244C12.083 10.8933 12.1474 10.8484 12.2011 10.7922C12.2549 10.736 12.2969 10.6698 12.3249 10.5972C12.3528 10.5247 12.3661 10.4473 12.3639 10.3696C12.3639 10.0548 12.1535 9.76508 11.7861 9.76508H10.1325V8.11151H11.9706C12.341 8.11151 12.5477 7.74109 12.5477 7.45587C12.5477 7.14027 12.338 6.79948 11.9706 6.79948H9.2924C8.92198 6.79948 8.71528 7.08767 8.71528 7.40327V13.5456C8.71528 13.916 9.0857 14.0968 9.42427 14.0968H12.1276C12.498 14.0968 12.7055 13.7264 12.7055 13.4404V13.4404ZM7.87442 8.8731C7.87442 7.45587 6.82538 6.79874 5.80005 6.79874H3.83237C3.46565 6.79874 3.25525 7.08693 3.25525 7.40253V13.5723C3.25525 13.9427 3.62567 14.1227 3.9635 14.1227C4.35689 14.1227 4.67175 13.9397 4.67175 13.5723V11.1868H5.27628L6.46163 13.8375C6.50695 13.9294 6.5785 14.0059 6.66724 14.0572C6.75598 14.1085 6.85793 14.1323 6.96022 14.1257C7.38028 14.1257 7.98332 13.7323 7.74773 13.2604L6.61498 10.8949C7.29804 10.5526 7.87442 9.94955 7.87442 8.8731ZM16.5638 9.0309C16.5638 9.91992 15.7489 10.1325 15.2518 10.1325H14.8317V8.00631H15.3295C15.9867 8.00631 16.5638 8.29599 16.5638 9.0309V9.0309ZM6.40532 9.0309C6.40532 9.91992 5.59039 10.1325 5.09255 10.1325H4.67175V8.00631H5.17182C5.82746 8.00631 6.40532 8.29599 6.40532 9.0309" fill="#25303B"/>
</g>
<defs>
<clipPath id="clip0_202_415">
<rect width="21" height="21" fill="white"/>
</clipPath>
</defs>
</svg>
