<svg width="21" height="21" viewBox="0 0 21 21" fill="none" xmlns="http://www.w3.org/2000/svg">
<g clip-path="url(#clip0_202_424)">
<path fill-rule="evenodd" clip-rule="evenodd" d="M4.72567 1.36649C2.87044 1.36649 1.36649 2.87044 1.36649 4.72567V16.2743C1.36649 18.1296 2.87044 19.6335 4.72567 19.6335H16.2743C18.1296 19.6335 19.6335 18.1296 19.6335 16.2743V4.72567C19.6335 2.87044 18.1296 1.36649 16.2743 1.36649H4.72567ZM0 4.72567C0 2.11575 2.11575 0 4.72567 0H16.2743C18.8842 0 21 2.11575 21 4.72567V16.2743C21 18.8842 18.8842 21 16.2743 21H4.72567C2.11575 21 0 18.8842 0 16.2743V4.72567Z" fill="#25303B"/>
<path d="M13.6219 15.1577C13.6657 15.1292 13.707 15.0972 13.7457 15.0621C14.1228 14.7562 14.4754 14.2879 14.7317 13.5619C15.0896 12.5447 15.3422 11.6357 15.4118 10.5156C15.5089 9.13758 14.9414 6.99432 14.565 5.9964L14.4339 5.6445C14.3532 5.42225 14.0442 4.94292 13.4967 4.37173C13.0256 3.88129 12.5729 3.84499 11.8839 3.84499H9.08649C8.39751 3.84499 7.94559 3.88129 7.47367 4.37173C6.92545 4.9407 6.61651 5.42002 6.5365 5.6445L6.40463 5.99862C6.02828 6.99432 5.46154 9.13758 5.55636 10.52C5.626 11.6357 5.87937 12.5433 6.23868 13.5641C6.49427 14.2916 6.84618 14.7584 7.22401 15.0643C7.26373 15.0983 7.30555 15.1297 7.34921 15.1584L5.31188 17.4239C5.23166 17.5165 5.1875 17.6348 5.1875 17.7573C5.1875 17.8798 5.23166 17.9982 5.31188 18.0907C5.34882 18.1337 5.39462 18.1683 5.44615 18.192C5.49768 18.2157 5.55373 18.2279 5.61045 18.2279C5.66716 18.2279 5.72321 18.2157 5.77474 18.192C5.82627 18.1683 5.87208 18.1337 5.90901 18.0907L6.61281 17.3098H14.3576L15.0599 18.0907C15.0969 18.1338 15.1428 18.1683 15.1944 18.192C15.246 18.2157 15.3021 18.228 15.3589 18.228C15.4156 18.228 15.4717 18.2157 15.5233 18.192C15.5749 18.1683 15.6208 18.1338 15.6578 18.0907C15.7377 17.998 15.7817 17.8797 15.7817 17.7573C15.7817 17.6349 15.7377 17.5166 15.6578 17.4239L13.6219 15.1577ZM12.9381 14.3316C12.7999 14.3315 12.6648 14.2904 12.5499 14.2135C12.435 14.1366 12.3455 14.0273 12.2926 13.8996C12.2398 13.7718 12.226 13.6313 12.253 13.4957C12.28 13.3601 12.3466 13.2355 12.4444 13.1378C12.5421 13.04 12.6667 12.9734 12.8023 12.9464C12.9379 12.9194 13.0784 12.9332 13.2062 12.986C13.3339 13.0389 13.4432 13.1284 13.5201 13.2433C13.597 13.3582 13.6381 13.4933 13.6382 13.6316C13.638 13.8172 13.5642 13.9951 13.433 14.1264C13.3017 14.2576 13.1238 14.3315 12.9381 14.3316V14.3316ZM6.6054 9.84583C6.17793 9.84583 6.84988 6.09271 7.15585 6.09271H13.7383C14.0709 6.09271 14.8495 9.84583 14.3309 9.84583H6.6054ZM7.31809 13.6316C7.31809 13.4931 7.35915 13.3577 7.43608 13.2426C7.51301 13.1275 7.62235 13.0377 7.75028 12.9847C7.8782 12.9318 8.01897 12.9179 8.15478 12.9449C8.29058 12.9719 8.41533 13.0386 8.51324 13.1365C8.61115 13.2344 8.67783 13.3592 8.70484 13.495C8.73185 13.6308 8.71799 13.7715 8.665 13.8995C8.61201 14.0274 8.52228 14.1367 8.40715 14.2137C8.29202 14.2906 8.15666 14.3316 8.01819 14.3316C7.92623 14.3317 7.83515 14.3137 7.75016 14.2786C7.66518 14.2434 7.58796 14.1918 7.52293 14.1268C7.4579 14.0618 7.40634 13.9846 7.37119 13.8996C7.33604 13.8146 7.318 13.7235 7.31809 13.6316ZM7.46034 16.3653L8.21007 15.5318C8.52187 15.5962 8.84009 15.6243 9.15835 15.6155H11.8121C12.1301 15.6243 12.4481 15.5962 12.7596 15.5318L13.5101 16.3653H7.46034Z" fill="#25303B"/>
</g>
<defs>
<clipPath id="clip0_202_424">
<rect width="21" height="21" fill="white"/>
</clipPath>
</defs>
</svg>
