<svg width="21" height="21" viewBox="0 0 21 21" fill="none" xmlns="http://www.w3.org/2000/svg">
<path d="M16.2749 0H4.72511C2.1155 0 0 2.1155 0 4.72511V16.2749C0 18.8845 2.1155 21 4.72511 21H16.2749C18.8845 21 21 18.8845 21 16.2749V4.72511C21 2.1155 18.8845 0 16.2749 0Z" fill="#D5C900"/>
<path d="M8.6494 16.1778C8.46048 16.1778 8.27082 16.1778 8.08191 16.1623L8.14562 14.3346C8.21971 14.3346 8.31824 14.3502 8.39751 14.3502C9.70436 14.3502 10.4608 13.5945 10.4608 11.8928V4.92884H12.9181V12.098C12.9181 14.1294 11.8321 16.1778 8.6494 16.1778Z" fill="#25303B"/>
</svg>
