<svg width="21" height="21" viewBox="0 0 21 21" fill="none" xmlns="http://www.w3.org/2000/svg">
<path d="M10.5 21C16.299 21 21 16.299 21 10.5C21 4.70101 16.299 0 10.5 0C4.70101 0 0 4.70101 0 10.5C0 16.299 4.70101 21 10.5 21Z" fill="white"/>
<path d="M5.99641 16.0519V7.30992C5.31927 7.84555 4.24801 8.36562 3.50717 8.69604L2.75076 6.99209C3.91685 6.50462 5.31927 5.76451 6.42165 4.92958H8.3597V16.0519H5.99641ZM13.2419 16.3193C11.9491 16.3193 10.9571 16.0363 10.1066 15.5163L11.0038 13.7834C11.6187 14.2087 12.2491 14.4924 13.1152 14.4924C13.9812 14.4924 15.0688 13.9738 15.0688 12.6647C15.0688 11.8609 14.5332 10.7586 12.4855 10.7267C11.855 10.7267 11.1149 10.7111 10.7519 10.7111L11.1964 4.93254H17.0394V6.78836H13.0389L12.8818 8.89977C12.9448 8.89977 13.0863 8.91533 13.1967 8.91533C16.2341 9.05683 17.4662 10.7741 17.4662 12.444C17.4639 14.5709 15.78 16.3193 13.2419 16.3193V16.3193Z" fill="#2F2F2F"/>
</svg>
