<svg width="21" height="21" viewBox="0 0 21 21" fill="none" xmlns="http://www.w3.org/2000/svg">
<path d="M16.2749 0H4.72511C2.1155 0 0 2.1155 0 4.72511V16.2749C0 18.8845 2.1155 21 4.72511 21H16.2749C18.8845 21 21 18.8845 21 16.2749V4.72511C21 2.1155 18.8845 0 16.2749 0Z" fill="white"/>
<path d="M10.6682 12.1447H9.53545V16.0519H7.07806V4.92958H10.4963C13.0648 4.92958 15.2703 5.62227 15.2703 8.3797C15.2703 11.609 12.5759 12.1447 10.6682 12.1447ZM10.6363 6.83578H9.53545V10.2548H10.6682C11.5817 10.2548 12.7789 9.97103 12.7789 8.5375C12.7811 7.02469 11.4579 6.83578 10.6386 6.83578H10.6363Z" fill="#2F2F2F"/>
</svg>
