<svg width="21" height="21" viewBox="0 0 21 21" fill="none" xmlns="http://www.w3.org/2000/svg">
<g clip-path="url(#clip0_122_546)">
<path d="M19.9502 0H1.04978C0.470002 0 0 0.470001 0 1.04978V2.1003C0 2.68007 0.470002 3.15007 1.04978 3.15007H19.9502C20.53 3.15007 21 2.68007 21 2.1003V1.04978C21 0.470001 20.53 0 19.9502 0Z" fill="white"/>
<path d="M19.9502 17.8499H1.04978C0.470002 17.8499 0 18.3199 0 18.8997V19.9502C0 20.53 0.470002 21 1.04978 21H19.9502C20.53 21 21 20.53 21 19.9502V18.8997C21 18.3199 20.53 17.8499 19.9502 17.8499Z" fill="white"/>
<path d="M4.997 7.96038V14.5947H3.20934V7.96038H0.722321V6.50536H7.48253V7.96038H4.997ZM11.5142 14.5947V8.23524C11.0216 8.62492 10.2422 9.00275 9.70359 9.24353L9.15314 8.00557C10.0014 7.65071 11.0216 7.11656 11.8202 6.50536H13.2278V14.5947H11.5142ZM17.3098 14.8125C14.8651 14.8125 14.388 12.4062 14.388 10.5385C14.388 8.67085 14.9147 6.26459 17.3558 6.26459C19.7969 6.26459 20.2777 8.67085 20.2777 10.5385C20.2777 12.4062 19.7502 14.8125 17.3098 14.8125ZM17.3328 7.62626C16.1638 7.62626 16.1297 9.71174 16.1297 10.537C16.1297 11.3623 16.1867 13.4589 17.3328 13.4589C18.4789 13.4589 18.5248 11.3394 18.5248 10.537C18.5248 9.69026 18.49 7.63071 17.3358 7.63071L17.3328 7.62626Z" fill="white"/>
</g>
<defs>
<clipPath id="clip0_122_546">
<rect width="21" height="21" fill="white"/>
</clipPath>
</defs>
</svg>
