<svg width="21" height="21" viewBox="0 0 21 21" fill="none" xmlns="http://www.w3.org/2000/svg">
<g clip-path="url(#clip0_122_537)">
<path d="M19.9502 0H1.04978C0.470002 0 0 0.470001 0 1.04978V2.1003C0 2.68007 0.470002 3.15007 1.04978 3.15007H19.9502C20.53 3.15007 21 2.68007 21 2.1003V1.04978C21 0.470001 20.53 0 19.9502 0Z" fill="white"/>
<path d="M19.9502 17.8499H1.04978C0.470002 17.8499 0 18.3199 0 18.8997V19.9502C0 20.53 0.470002 21 1.04978 21H19.9502C20.53 21 21 20.53 21 19.9502V18.8997C21 18.3199 20.53 17.8499 19.9502 17.8499Z" fill="white"/>
<path d="M7.85297 7.95742V14.5947H6.0616V7.95742H3.57458V6.5024H10.3348V7.95742H7.85297ZM12.178 14.5947V13.5264C12.384 12.587 13.3123 11.7276 14.3894 10.7852C14.928 10.3155 15.5118 9.73026 15.5118 8.95089C15.5118 8.25302 15.0532 7.66775 14.1716 7.66775C13.4612 7.66775 12.9685 8.18634 12.7729 8.40119L11.9276 7.28177C12.707 6.60538 13.4286 6.28459 14.5206 6.28459C15.9415 6.28459 17.2817 7.10989 17.2817 8.75976C17.2817 10.1459 16.4001 10.7993 15.4296 11.6816C15.0169 12.0595 14.2035 12.77 14.1005 13.2374H17.4343V14.5947H12.178Z" fill="white"/>
</g>
<defs>
<clipPath id="clip0_122_537">
<rect width="21" height="21" fill="white"/>
</clipPath>
</defs>
</svg>
