<svg width="21" height="21" viewBox="0 0 21 21" fill="none" xmlns="http://www.w3.org/2000/svg">
<path d="M10.5 21C16.299 21 21 16.299 21 10.5C21 4.70101 16.299 0 10.5 0C4.70101 0 0 4.70101 0 10.5C0 16.299 4.70101 21 10.5 21Z" fill="white"/>
<path d="M8.43228 16.0504V4.92143H6.49348C5.39037 5.75636 3.98795 6.49795 2.82037 6.98616L3.57752 8.69011C4.31836 8.32709 5.39037 7.83888 6.06824 7.3025V16.0519L8.43228 16.0504ZM17.538 12.7425C17.538 11.1808 16.6082 10.2355 15.3777 10.0014V9.97029C16.5631 9.52949 17.1757 8.61528 17.1757 7.46475C17.1757 5.98306 15.8822 4.62657 13.613 4.62657C12.2098 4.62657 11.1853 4.98884 10.2385 5.6193L11.0438 7.25954C11.6083 6.74445 12.3443 6.45769 13.1085 6.45498C14.2746 6.45498 14.8124 7.10174 14.8124 7.81147C14.8124 8.6627 14.136 9.23018 13.0477 9.23018H11.8794V11.0682H13.0292C14.1649 11.0682 15.1414 11.5127 15.1414 12.787C15.1414 13.733 14.3376 14.4909 13.0455 14.4909C12.0995 14.4909 11.3268 14.0975 10.8548 13.7664L9.98657 15.4837C10.7274 15.9245 11.6105 16.3179 13.2033 16.3179C15.7881 16.3179 17.538 14.6954 17.538 12.7403" fill="#2F2F2F"/>
</svg>
