<svg width="21" height="21" viewBox="0 0 21 21" fill="none" xmlns="http://www.w3.org/2000/svg">
<path d="M10.5 21C16.299 21 21 16.299 21 10.5C21 4.70101 16.299 0 10.5 0C4.70101 0 0 4.70101 0 10.5C0 16.299 4.70101 21 10.5 21Z" fill="white"/>
<path d="M14.4731 12.9648C14.4731 11.4979 13.5752 10.5519 12.5469 10.0651C13.5878 9.43318 14.1235 8.55158 14.1235 7.50995C14.1235 5.60227 12.4995 4.64066 10.5437 4.64066C8.63825 4.64066 6.96616 5.91787 6.96616 7.76258C6.96616 8.91385 7.56625 9.67025 8.52712 10.2689C7.45512 10.82 6.61945 11.7505 6.61945 13.2322C6.61945 14.9191 8.02261 16.3994 10.4963 16.3994C12.7825 16.3994 14.4694 15.0762 14.4694 12.9641L14.4731 12.9648ZM12.0017 7.65441C12.0017 8.34785 11.3712 9.07313 10.7867 9.34058C10.0777 9.04424 9.16425 8.47453 9.16425 7.56255C9.16425 6.78985 9.71544 6.25422 10.5822 6.25422C11.4979 6.25422 12.0017 6.88394 12.0017 7.65738V7.65441ZM12.175 13.1396C12.175 14.0227 11.592 14.7628 10.5348 14.7628C9.46355 14.7628 8.86421 13.8968 8.86421 12.9848C8.86421 12.1173 9.58875 11.3297 10.314 11.0453C11.2608 11.5187 12.175 12.1328 12.175 13.1426" fill="#2F2F2F"/>
</svg>
