<svg width="21" height="21" viewBox="0 0 21 21" fill="none" xmlns="http://www.w3.org/2000/svg">
<path d="M10.5 21C16.299 21 21 16.299 21 10.5C21 4.70101 16.299 0 10.5 0C4.70101 0 0 4.70101 0 10.5C0 16.299 4.70101 21 10.5 21Z" fill="white"/>
<path d="M14.5739 9.73396C14.5739 6.78614 13.4834 4.67325 10.4459 4.67325C8.11298 4.67325 6.63129 6.31274 6.63129 8.53602C6.63129 10.6171 8.11298 11.8306 9.95694 11.8306C11.1556 11.8306 11.8831 11.4053 12.2587 11.0742C12.1009 13.3122 10.966 14.5561 9.40575 14.5561C8.88376 14.5602 8.36537 14.4694 7.87591 14.2879L7.52993 16.1801C8.07711 16.3079 8.63715 16.3725 9.19906 16.3727C12.761 16.3727 14.5739 13.5982 14.5739 9.73618V9.73396ZM12.2876 8.50638C12.2876 8.83754 12.2876 9.27834 12.1617 9.46948C11.9394 9.8162 11.3734 10.0844 10.6637 10.0844C9.56133 10.0844 8.86716 9.32724 8.86716 8.28709C8.86716 7.32399 9.43539 6.42757 10.5385 6.42757C11.6727 6.42757 12.2876 7.45216 12.2876 8.50786" fill="#2F2F2F"/>
</svg>
