<svg width="21" height="21" viewBox="0 0 21 21" fill="none" xmlns="http://www.w3.org/2000/svg">
<g clip-path="url(#clip0_122_548)">
<path d="M19.9502 0H1.04978C0.470002 0 0 0.470001 0 1.04978V2.1003C0 2.68007 0.470002 3.15007 1.04978 3.15007H19.9502C20.53 3.15007 21 2.68007 21 2.1003V1.04978C21 0.470001 20.53 0 19.9502 0Z" fill="white"/>
<path d="M19.9502 17.8499H1.04978C0.470002 17.8499 0 18.3199 0 18.8997V19.9502C0 20.53 0.470002 21 1.04978 21H19.9502C20.53 21 21 20.53 21 19.9502V18.8997C21 18.3199 20.53 17.8499 19.9502 17.8499Z" fill="white"/>
<path d="M5.2148 7.96112V14.5946H3.42714V7.96112H0.940125V6.50536H7.70034V7.96112H5.2148ZM11.732 14.5946V8.23597C11.2394 8.62566 10.46 9.00349 9.92139 9.24427L9.37094 8.00631C10.2192 7.65145 11.2394 7.1173 12.038 6.50536H13.4456V14.5946H11.732ZM14.8125 14.5946V13.5301C15.0184 12.5899 15.9467 11.7313 17.0239 10.7889C17.5625 10.3192 18.1463 9.7347 18.1463 8.95534C18.1463 8.25672 17.6877 7.67219 16.8061 7.67219C16.0956 7.67219 15.6029 8.19078 15.4073 8.40563L14.5598 7.28473C15.3392 6.60908 16.0608 6.28755 17.1528 6.28755C18.5737 6.28755 19.9139 7.11359 19.9139 8.76272C19.9139 10.1496 19.0323 10.8023 18.0618 11.6853C17.6491 12.0632 16.8357 12.7737 16.7327 13.2411H20.0665V14.5946H14.8125Z" fill="white"/>
</g>
<defs>
<clipPath id="clip0_122_548">
<rect width="21" height="21" fill="white"/>
</clipPath>
</defs>
</svg>
