<svg width="21" height="21" viewBox="0 0 21 21" fill="none" xmlns="http://www.w3.org/2000/svg">
<g clip-path="url(#clip0_122_538)">
<path d="M19.9502 0H1.04978C0.470002 0 0 0.470001 0 1.04978V2.1003C0 2.68007 0.470002 3.15007 1.04978 3.15007H19.9502C20.53 3.15007 21 2.68007 21 2.1003V1.04978C21 0.470001 20.53 0 19.9502 0Z" fill="white"/>
<path d="M19.9502 17.8499H1.04978C0.470002 17.8499 0 18.3199 0 18.8997V19.9502C0 20.53 0.470002 21 1.04978 21H19.9502C20.53 21 21 20.53 21 19.9502V18.8997C21 18.3199 20.53 17.8499 19.9502 17.8499Z" fill="white"/>
<path d="M5.18074 7.96705V14.6013H3.39308V7.96705H0.906067V6.51128H7.66628V7.96705H5.18074ZM11.6179 14.7969C10.46 14.7969 9.81844 14.5109 9.27984 14.1901L9.9103 12.9403C10.3753 13.274 10.9309 13.458 11.5031 13.4678C12.4425 13.4678 13.027 12.9174 13.027 12.2299C13.027 11.3016 12.3166 10.9808 11.492 10.9808H10.6549V9.63987H11.5031C12.2936 9.63987 12.7863 9.22722 12.7863 8.60862C12.7863 8.09003 12.3973 7.62329 11.5491 7.62329C10.9935 7.62489 10.4584 7.83327 10.0481 8.20782L9.46357 7.0158C10.1496 6.55722 10.8956 6.29718 11.9158 6.29718C13.5656 6.29718 14.5087 7.2825 14.5087 8.36043C14.5087 9.19685 14.0642 9.86139 13.2019 10.1822V10.2051C14.0961 10.377 14.7717 11.0645 14.7717 12.1995C14.7688 13.6167 13.4975 14.7969 11.6179 14.7969ZM19.1583 13.0129C18.7264 13.0129 18.5108 12.7455 18.4411 12.3825C18.0618 12.8314 17.707 13.0559 17.0765 13.0559C16.2616 13.0559 15.7119 12.4684 15.7119 11.6831C15.7119 10.4304 17.0246 10.1888 18.044 10.1888C18.2337 10.1888 18.3463 10.18 18.3463 10.0244V9.72211C18.3463 9.39465 18.1396 9.0835 17.5003 9.0835C17.082 9.08594 16.6781 9.23572 16.3594 9.50652L15.9363 8.6427C16.446 8.3145 17.0076 8.16781 17.8025 8.16781C18.45 8.16781 19.4954 8.40044 19.4954 9.731V11.8535C19.4954 12.0172 19.5124 12.1558 19.6591 12.1558C19.7268 12.1497 19.7935 12.1353 19.8576 12.1128L19.9273 12.8989C19.676 12.9655 19.4181 13.0037 19.1583 13.0129ZM18.3382 10.9386C18.2078 10.9304 18.0789 10.9304 17.9751 10.9304C17.5521 10.9304 16.912 11.0341 16.912 11.5868C16.9092 11.6636 16.9223 11.7402 16.9504 11.8117C16.9786 11.8832 17.0211 11.9482 17.0755 12.0025C17.1299 12.0568 17.1949 12.0993 17.2664 12.1273C17.338 12.1553 17.4146 12.1683 17.4914 12.1654C17.6109 12.1706 17.7302 12.1509 17.8418 12.1077C17.9533 12.0645 18.0547 11.9986 18.1396 11.9143C18.2075 11.8416 18.2601 11.756 18.2942 11.6626C18.3283 11.5692 18.3433 11.4698 18.3382 11.3705V10.9386Z" fill="white"/>
</g>
<defs>
<clipPath id="clip0_122_538">
<rect width="21" height="21" fill="white"/>
</clipPath>
</defs>
</svg>
