<svg width="21" height="21" viewBox="0 0 21 21" fill="none" xmlns="http://www.w3.org/2000/svg">
<g clip-path="url(#clip0_122_550)">
<path d="M20.3177 0H0.682318C0.305484 0 0 0.305484 0 0.682318V0.683059C0 1.05989 0.305484 1.36538 0.682318 1.36538H20.3177C20.6945 1.36538 21 1.05989 21 0.683059V0.682318C21 0.305484 20.6945 0 20.3177 0Z" fill="white"/>
<path d="M20.3177 19.6354H0.682318C0.305484 19.6354 0 19.9408 0 20.3177V20.3184C0 20.6953 0.305484 21.0007 0.682318 21.0007H20.3177C20.6945 21.0007 21 20.6953 21 20.3184V20.3177C21 19.9408 20.6945 19.6354 20.3177 19.6354Z" fill="white"/>
<path d="M2.10028 15.7504H15.8578C16.4376 15.7526 17.0063 15.591 17.4984 15.2841C17.9904 14.9773 18.3858 14.5377 18.6389 14.016C18.8679 13.5433 18.9497 13.0127 18.8738 12.4929C18.6436 10.8222 17.9094 9.26139 16.769 8.0189C16.5769 7.80873 16.3431 7.6409 16.0825 7.5261C15.8219 7.41131 15.5402 7.35206 15.2555 7.35214H7.99519L9.51762 6.09715C9.55905 6.06238 9.59237 6.01896 9.61522 5.96994C9.63808 5.92092 9.64992 5.86749 9.64992 5.81341C9.64992 5.75932 9.63808 5.70589 9.61522 5.65687C9.59237 5.60785 9.55905 5.56443 9.51762 5.52966L6.84021 3.3338C6.81609 3.31394 6.78829 3.29903 6.7584 3.28992C6.72851 3.28081 6.69712 3.27768 6.66602 3.28071C6.63492 3.28373 6.60473 3.29286 6.57716 3.30756C6.54959 3.32226 6.52519 3.34226 6.50535 3.36639L6.35718 3.55012C6.31703 3.59896 6.29791 3.66174 6.30402 3.72467C6.31014 3.7876 6.34098 3.84553 6.38977 3.88573L8.74196 5.81341L6.8691 7.34992H2.10028V8.29746H5.15553C5.19482 8.29746 5.23251 8.31307 5.2603 8.34086C5.28808 8.36864 5.3037 8.40633 5.3037 8.44563V12.5055C5.3037 12.5448 5.28808 12.5824 5.2603 12.6102C5.23251 12.638 5.19482 12.6536 5.15553 12.6536H2.10028V15.7504ZM16.0637 8.64714C16.8744 9.52815 17.4578 10.5937 17.7632 11.7513C17.8944 12.2476 17.5884 12.6529 17.0742 12.6529H12.6944C12.6551 12.6529 12.6174 12.6373 12.5896 12.6095C12.5618 12.5817 12.5462 12.544 12.5462 12.5047V8.44563C12.5462 8.40633 12.5618 8.36864 12.5896 8.34086C12.6174 8.31307 12.6551 8.29746 12.6944 8.29746H15.2555C15.4072 8.29695 15.5574 8.32796 15.6966 8.38854C15.8357 8.44912 15.9607 8.53793 16.0637 8.64936V8.64714ZM11.4557 14.8073H9.54503C9.50574 14.8073 9.46805 14.7917 9.44026 14.7639C9.41248 14.7361 9.39687 14.6984 9.39687 14.6591V8.44563C9.39687 8.40633 9.41248 8.36864 9.44026 8.34086C9.46805 8.31307 9.50574 8.29746 9.54503 8.29746H11.4557C11.495 8.29746 11.5327 8.31307 11.5604 8.34086C11.5882 8.36864 11.6038 8.40633 11.6038 8.44563V14.6621C11.6038 14.7014 11.5882 14.739 11.5604 14.7668C11.5327 14.7946 11.495 14.8102 11.4557 14.8102V14.8073ZM6.39422 8.29746H8.3056C8.3449 8.29746 8.38259 8.31307 8.41037 8.34086C8.43816 8.36864 8.45377 8.40633 8.45377 8.44563V14.6621C8.45377 14.7014 8.43816 14.739 8.41037 14.7668C8.38259 14.7946 8.3449 14.8102 8.3056 14.8102H6.39422C6.35492 14.8102 6.31724 14.7946 6.28945 14.7668C6.26166 14.739 6.24605 14.7014 6.24605 14.6621V8.44563C6.24605 8.40633 6.26166 8.36864 6.28945 8.34086C6.31724 8.31307 6.35492 8.29746 6.39422 8.29746ZM18.6063 17.4721H2.10028V16.5905H18.6063C18.6849 16.5905 18.7603 16.6217 18.8159 16.6773C18.8714 16.7329 18.9027 16.8082 18.9027 16.8868V17.1832C18.9027 17.2618 18.8714 17.3371 18.8159 17.3927C18.7603 17.4483 18.6849 17.4795 18.6063 17.4795" fill="white"/>
</g>
<defs>
<clipPath id="clip0_122_550">
<rect width="21" height="21" fill="white"/>
</clipPath>
</defs>
</svg>
