<svg width="21" height="21" viewBox="0 0 21 21" fill="none" xmlns="http://www.w3.org/2000/svg">
<path d="M10.5 21C16.299 21 21 16.299 21 10.5C21 4.70101 16.299 0 10.5 0C4.70101 0 0 4.70101 0 10.5C0 16.299 4.70101 21 10.5 21Z" fill="white"/>
<path d="M5.86823 16.0519V7.30993C5.19036 7.84556 4.1191 8.36563 3.37825 8.69605L2.62259 6.9921C3.78794 6.50537 5.19036 5.76452 6.29718 4.92959H8.23079V16.0519H5.86823ZM13.9634 16.3201C10.926 16.3201 9.8362 14.2087 9.8362 11.2631C9.8362 7.40253 11.6476 4.63029 15.2081 4.63029C15.7701 4.62944 16.3303 4.69282 16.8779 4.8192L16.5312 6.70984C16.0423 6.52964 15.5246 6.44002 15.0036 6.44536C13.4441 6.44536 12.3099 7.68998 12.1521 9.92733C12.5299 9.59617 13.2545 9.17093 14.4524 9.17093C16.2949 9.17093 17.7766 10.3844 17.7766 12.464C17.7803 14.6813 16.2986 16.3201 13.9634 16.3201V16.3201ZM13.7412 10.9164C13.0322 10.9164 12.4655 11.1838 12.2439 11.5305C12.1187 11.7194 12.1187 12.161 12.1187 12.4936C12.1187 13.5493 12.7329 14.5732 13.8664 14.5732C14.9695 14.5732 15.537 13.6753 15.537 12.7144C15.5392 11.672 14.8458 10.9164 13.7434 10.9164H13.7412Z" fill="#2F2F2F"/>
</svg>
