<svg width="21" height="21" viewBox="0 0 21 21" fill="none" xmlns="http://www.w3.org/2000/svg">
<path d="M10.5 21C16.299 21 21 16.299 21 10.5C21 4.70101 16.299 0 10.5 0C4.70101 0 0 4.70101 0 10.5C0 16.299 4.70101 21 10.5 21Z" fill="white"/>
<path d="M14.2731 12.4684C14.2731 10.7971 13.0441 9.07981 10.0014 8.93756C9.89105 8.93756 9.75029 8.92201 9.68657 8.92201L9.84363 6.80986H13.8442V4.94885H8.00115L7.55664 10.7341C7.9204 10.7341 8.66124 10.7497 9.2917 10.7497C11.3401 10.7815 11.8765 11.8854 11.8765 12.6892C11.8765 13.9975 10.7897 14.5184 9.9229 14.5184C9.05612 14.5184 8.42492 14.2339 7.81001 13.8086L6.91211 15.5415C7.76334 16.06 8.75681 16.3468 10.0488 16.3468C12.587 16.3468 14.2717 14.5969 14.2717 12.4684" fill="#2F2F2F"/>
</svg>
