<svg width="21" height="21" viewBox="0 0 21 21" fill="none" xmlns="http://www.w3.org/2000/svg">
<path d="M10.5 21C16.299 21 21 16.299 21 10.5C21 4.70101 16.299 0 10.5 0C4.70101 0 0 4.70101 0 10.5C0 16.299 4.70101 21 10.5 21Z" fill="white"/>
<path d="M14.3983 12.7107C14.3983 11.1505 13.4685 10.2044 12.238 9.96956V9.93844C13.4233 9.49764 14.036 8.5827 14.036 7.43216C14.036 5.95047 12.7418 4.59473 10.4733 4.59473C9.07014 4.59473 8.04481 4.957 7.09875 5.58746L7.90331 7.22695C8.4683 6.71215 9.20444 6.42567 9.96878 6.42313C11.1356 6.42313 11.6727 7.06915 11.6727 7.77814C11.6727 8.63011 10.9963 9.19834 9.90804 9.19834H8.74195V11.0386H9.89026C11.0252 11.0386 12.0017 11.4831 12.0017 12.7566C12.0017 13.7034 11.1978 14.4606 9.90581 14.4606C8.95975 14.4606 8.18705 14.0664 7.71365 13.736L6.84686 15.454C7.58771 15.8948 8.4708 16.2882 10.0636 16.2882C12.6477 16.2882 14.3983 14.6658 14.3983 12.7099" fill="#2F2F2F"/>
</svg>
