<svg width="21" height="21" viewBox="0 0 21 21" fill="none" xmlns="http://www.w3.org/2000/svg">
<g clip-path="url(#clip0_122_540)">
<path d="M19.9502 0H1.04978C0.470002 0 0 0.470001 0 1.04978V2.1003C0 2.68007 0.470002 3.15007 1.04978 3.15007H19.9502C20.53 3.15007 21 2.68007 21 2.1003V1.04978C21 0.470001 20.53 0 19.9502 0Z" fill="white"/>
<path d="M19.9502 17.8499H1.04978C0.470002 17.8499 0 18.3199 0 18.8997V19.9502C0 20.53 0.470002 21 1.04978 21H19.9502C20.53 21 21 20.53 21 19.9502V18.8997C21 18.3199 20.53 17.8499 19.9502 17.8499Z" fill="white"/>
<path d="M7.60256 7.95742V14.5946H5.8149V7.95742H3.32788V6.5024H10.0888V7.95742H7.60256ZM16.7209 12.9077V14.5946H15.117V12.9077H11.4735V11.409L14.6124 6.50462H16.7209V11.6498H17.6721V12.9092L16.7209 12.9077ZM15.117 7.9226H15.094C15.0599 8.06113 14.8302 8.5538 14.5095 9.05757L12.8596 11.6505H15.117V7.9226Z" fill="white"/>
</g>
<defs>
<clipPath id="clip0_122_540">
<rect width="21" height="21" fill="white"/>
</clipPath>
</defs>
</svg>
