<svg width="21" height="21" viewBox="0 0 21 21" fill="none" xmlns="http://www.w3.org/2000/svg">
<path d="M10.5 21C16.299 21 21 16.299 21 10.5C21 4.70101 16.299 0 10.5 0C4.70101 0 0 4.70101 0 10.5C0 16.299 4.70101 21 10.5 21Z" fill="#2F2F2F"/>
<path d="M14.288 12.5099C14.288 10.4289 12.8063 9.21611 10.9616 9.21611C9.76288 9.21611 9.03537 9.64136 8.6605 9.97103C8.8183 7.73294 9.95254 6.48906 11.5135 6.48906C12.1595 6.48906 12.7433 6.63056 13.0426 6.7565L13.3893 4.86513C12.8411 4.73911 12.2804 4.67574 11.718 4.67621C8.15599 4.67621 6.34314 7.45068 6.34314 11.3127C6.34314 14.2605 7.4307 16.3727 10.4734 16.3727C12.8055 16.3727 14.288 14.7339 14.288 12.5106V12.5099ZM12.0491 12.7625C12.0491 13.7256 11.4816 14.6228 10.3778 14.6228C9.24281 14.6228 8.62865 13.599 8.62865 12.5418C8.62865 12.2106 8.62865 11.7691 8.75459 11.5787C8.97684 11.232 9.54211 10.9638 10.2518 10.9638C11.3557 10.9638 12.0491 11.7209 12.0491 12.7611" fill="white"/>
</svg>
