<svg width="21" height="21" viewBox="0 0 21 21" fill="none" xmlns="http://www.w3.org/2000/svg">
<path d="M10.5 21C16.299 21 21 16.299 21 10.5C21 4.70101 16.299 0 10.5 0C4.70101 0 0 4.70101 0 10.5C0 16.299 4.70101 21 10.5 21Z" fill="#2F2F2F"/>
<path d="M11.1682 6.74614V4.93329H3.38416V6.79355H8.78862L6.07491 11.8357C5.09847 13.6479 4.70434 14.5924 4.70434 16.0586H7.24544C7.24544 14.3102 8.72713 10.9845 11.1719 6.74614H11.1682ZM14.3724 12.1039C14.3724 11.326 14.022 10.4274 13.1781 10.4274C12.7684 10.4274 12.5217 10.6385 12.3047 10.9519V9.28798H11.4542V13.7501H12.2743V13.6019C12.4682 13.7636 12.7123 13.8527 12.9648 13.8538C13.9945 13.8538 14.3724 12.8292 14.3724 12.1054V12.1039ZM13.4922 12.2321C13.4922 12.6722 13.3589 13.2574 12.8166 13.2574C12.4306 13.2574 12.298 13.0581 12.298 12.8351V11.7424C12.298 11.555 12.3158 11.4646 12.4603 11.326C12.5113 11.274 12.5723 11.2328 12.6397 11.2048C12.707 11.1768 12.7792 11.1626 12.8522 11.1631C13.3885 11.1631 13.4915 11.7965 13.4915 12.2306L13.4922 12.2321ZM15.9585 9.67396C15.9585 9.41466 15.7778 9.22945 15.4881 9.22945C15.1984 9.22945 15.0117 9.41614 15.0117 9.67396C15.0117 9.93177 15.1992 10.1185 15.4881 10.1185C15.777 10.1185 15.9585 9.93177 15.9585 9.67396ZM15.9044 10.5304H15.0599V13.7486H15.9044V10.5304ZM18.9182 12.7848C18.9182 12.2484 18.593 12.0017 18.1344 11.8328L17.8543 11.7298C17.6973 11.6757 17.4743 11.5816 17.4743 11.3861C17.4743 11.2416 17.5773 11.0667 17.9188 11.0667C18.1491 11.0721 18.3738 11.1386 18.57 11.2594L18.8293 10.6385C18.5607 10.5002 18.2631 10.4279 17.961 10.4274C17.2076 10.4274 16.6949 10.9104 16.6949 11.5187C16.6949 11.9891 16.9727 12.2365 17.3884 12.3995L17.6536 12.5018C17.8284 12.5677 18.1299 12.6499 18.1299 12.8937C18.1299 13.1463 17.8588 13.2248 17.6358 13.2248C17.3665 13.2189 17.1046 13.1353 16.8816 12.9841L16.6231 13.6049C16.9116 13.7662 17.2363 13.8519 17.5669 13.8538C18.4115 13.8538 18.9182 13.413 18.9182 12.7862" fill="white"/>
</svg>
