<svg width="21" height="21" viewBox="0 0 21 21" fill="none" xmlns="http://www.w3.org/2000/svg">
<path d="M10.5 21C16.299 21 21 16.299 21 10.5C21 4.70101 16.299 0 10.5 0C4.70101 0 0 4.70101 0 10.5C0 16.299 4.70101 21 10.5 21Z" fill="#2F2F2F"/>
<path d="M8.42043 16.0712V4.94218H6.48089C5.37926 5.77859 3.97536 6.51944 2.80927 7.00766L3.56493 8.7116C4.30577 8.34859 5.37926 7.86037 6.05565 7.324V16.0734L8.42043 16.0712ZM18.1099 10.4904C18.1099 7.92112 17.4476 4.61102 14.0894 4.61102C10.7311 4.61102 10.0066 7.92112 10.0066 10.4904C10.0066 13.0596 10.6682 16.3727 14.0264 16.3727C17.3847 16.3727 18.1099 13.0633 18.1099 10.4933V10.4904ZM15.6985 10.4933C15.6985 11.5965 15.634 14.5132 14.0583 14.5132C12.4825 14.5132 12.4032 11.612 12.4032 10.4933C12.4032 9.35836 12.4506 6.49277 14.0583 6.49277C15.6503 6.49277 15.6985 9.33095 15.6985 10.497" fill="white"/>
</svg>
