<svg width="21" height="21" viewBox="0 0 21 21" fill="none" xmlns="http://www.w3.org/2000/svg">
<path d="M10.5 21C16.299 21 21 16.299 21 10.5C21 4.70101 16.299 0 10.5 0C4.70101 0 0 4.70101 0 10.5C0 16.299 4.70101 21 10.5 21Z" fill="#2F2F2F"/>
<path d="M8.29154 16.0682V4.93995H6.352C5.24963 5.77859 3.84647 6.51944 2.67889 7.00395L3.43678 8.70789C4.17762 8.34488 5.24963 7.85296 5.92676 7.31881V16.0682H8.29154ZM17.381 16.0682V14.2079H12.7944C12.9359 13.5619 14.0538 12.5855 14.6221 12.0639C15.9622 10.8512 17.1765 9.95251 17.1765 8.04484C17.1765 5.77489 15.3318 4.63695 13.3767 4.63695C11.8795 4.63695 10.8867 5.08145 9.81397 6.00899L10.9808 7.55662C11.249 7.26028 11.9269 6.54833 12.907 6.54833C14.1205 6.54833 14.7495 7.3514 14.7495 8.31376C14.7495 9.38577 13.9471 10.1896 13.2063 10.8326C11.7246 12.1254 10.4467 13.3071 10.1629 14.5998V16.066L17.381 16.0682Z" fill="white"/>
</svg>
