<svg width="21" height="21" viewBox="0 0 21 21" fill="none" xmlns="http://www.w3.org/2000/svg">
<path d="M16.2749 0H4.72511C2.1155 0 0 2.1155 0 4.72511V16.2749C0 18.8845 2.1155 21 4.72511 21H16.2749C18.8845 21 21 18.8845 21 16.2749V4.72511C21 2.1155 18.8845 0 16.2749 0Z" fill="#2F2F2F"/>
<path d="M13.0211 16.0519L9.02055 10.5222C8.62789 9.99781 8.30421 9.42515 8.05745 8.81828H8.02559V16.0497H5.74231V4.92958H7.99522L11.9343 10.6637C12.5322 11.5305 12.8974 12.1765 12.9581 12.4418H12.9893V4.92958H15.2614V16.0519H13.0211Z" fill="white"/>
</svg>
