<svg width="21" height="21" viewBox="0 0 21 21" fill="none" xmlns="http://www.w3.org/2000/svg">
<g clip-path="url(#clip0_202_409)">
<path fill-rule="evenodd" clip-rule="evenodd" d="M10.4998 1.36538C5.45485 1.36538 1.36513 5.45509 1.36513 10.5C1.36513 15.5449 5.45485 19.6346 10.4998 19.6346C15.5447 19.6346 19.6344 15.5449 19.6344 10.5C19.6344 5.45509 15.5447 1.36538 10.4998 1.36538ZM-0.000244141 10.5C-0.000244141 4.70101 4.70078 0 10.4998 0C16.2988 0 20.9998 4.70101 20.9998 10.5C20.9998 16.299 16.2988 21 10.4998 21C4.70078 21 -0.000244141 16.299 -0.000244141 10.5Z" fill="#25303B"/>
<path d="M15.7244 15.1984V6.03789C15.7244 5.51263 15.4355 4.96144 14.5687 4.96144C13.9131 4.96144 13.6501 5.25037 13.3619 5.82749L10.5267 11.7342H10.5007L7.63886 5.82749C7.34993 5.25037 7.08767 4.96366 6.43128 4.96366C5.56524 4.96366 5.27631 5.51263 5.27631 6.03789V15.1984C5.27631 15.6978 5.67044 15.9867 6.14309 15.9867C6.56241 15.9867 7.03211 15.6978 7.03211 15.1984V8.37155H7.05878L9.66063 13.676C9.84362 14.0464 10.0807 14.2539 10.5007 14.2539C10.9208 14.2539 11.1564 14.0435 11.3401 13.676L13.939 8.37155H13.9657V15.1962C13.9657 15.6955 14.4376 15.9845 14.8584 15.9845C15.3303 15.9845 15.7244 15.6955 15.7244 15.1962" fill="#25303B"/>
</g>
<defs>
<clipPath id="clip0_202_409">
<rect width="21" height="21" fill="white"/>
</clipPath>
</defs>
</svg>
