<svg width="21" height="21" viewBox="0 0 21 21" fill="none" xmlns="http://www.w3.org/2000/svg">
<path d="M10.5 21C16.299 21 21 16.299 21 10.5C21 4.70101 16.299 0 10.5 0C4.70101 0 0 4.70101 0 10.5C0 16.299 4.70101 21 10.5 21Z" fill="#98D4E2"/>
<path d="M10.7711 12.664C10.7711 11.1038 9.84211 10.1577 8.61305 9.92289V9.89177C9.7984 9.45171 10.4096 8.53677 10.4096 7.38697C10.4096 5.90528 9.11756 4.55028 6.84835 4.55028C5.44519 4.55028 4.42208 4.91255 3.47454 5.54301L4.27984 7.18102C4.8445 6.66606 5.58037 6.37931 6.34458 6.37646C7.50993 6.37646 8.04852 7.02322 8.04852 7.73221C8.04852 8.5827 7.37139 9.15093 6.28383 9.15093H5.11181V10.9934H6.26531C7.39954 10.9934 8.37672 11.4379 8.37672 12.7114C8.37672 13.6567 7.57364 14.4154 6.28012 14.4154C5.33555 14.4154 4.56359 14.0212 4.09093 13.6901L3.22266 15.4096C3.9635 15.8497 4.84659 16.2445 6.43792 16.2445C9.02273 16.2445 10.7711 14.6221 10.7711 12.6677V12.664ZM14.8769 10.6141C14.8769 9.83621 14.5272 8.93756 13.6827 8.93756C13.2722 8.93756 13.0248 9.14796 12.8085 9.46134V7.79814H11.9572V12.2603H12.7773V12.1121C12.9713 12.2711 13.214 12.3585 13.4648 12.3595C14.4961 12.3595 14.8769 11.3349 14.8769 10.6111V10.6141ZM13.996 10.7423C13.996 11.1823 13.8634 11.7669 13.3204 11.7669C12.9344 11.7669 12.8018 11.5683 12.8018 11.3453V10.2518C12.8018 10.0651 12.8203 9.97401 12.9648 9.83621C13.0158 9.78412 13.0768 9.74284 13.1441 9.71484C13.2115 9.68684 13.2838 9.67269 13.3567 9.67322C13.8938 9.67322 13.996 10.3059 13.996 10.7408V10.7423ZM16.4623 8.18412C16.4623 7.92483 16.2815 7.73962 15.9911 7.73962C15.7007 7.73962 15.5155 7.92631 15.5155 8.18412C15.5155 8.44194 15.7022 8.62863 15.9911 8.62863C16.2801 8.62863 16.4623 8.4412 16.4623 8.18412ZM16.4075 9.03832H15.5637V12.2573H16.4075V9.03832ZM19.422 11.2949C19.422 10.7586 19.096 10.5111 18.6382 10.3422L18.3552 10.24C18.1981 10.1859 17.9751 10.0918 17.9751 9.89622C17.9751 9.74805 18.0781 9.57691 18.4196 9.57691C18.6497 9.58193 18.8743 9.64844 19.0701 9.76953L19.3301 9.1487C19.0615 9.01042 18.7639 8.93804 18.4618 8.93756C17.7077 8.93756 17.195 9.41985 17.195 10.0288C17.195 10.4993 17.4728 10.7467 17.8899 10.909L18.1544 11.0112C18.33 11.0779 18.63 11.1594 18.63 11.4031C18.63 11.6565 18.3596 11.735 18.1366 11.735C17.867 11.7285 17.605 11.6446 17.3817 11.4935L17.1224 12.115C17.4127 12.2758 17.7388 12.3609 18.0707 12.3625C18.9145 12.3625 19.4205 11.918 19.4205 11.2949" fill="#25303B"/>
</svg>
