<svg width="21" height="21" viewBox="0 0 21 21" fill="none" xmlns="http://www.w3.org/2000/svg">
<path d="M10.5 21C16.299 21 21 16.299 21 10.5C21 4.70101 16.299 0 10.5 0C4.70101 0 0 4.70101 0 10.5C0 16.299 4.70101 21 10.5 21Z" fill="#00A88F"/>
<path d="M6.12754 16.0519V7.30992C5.44967 7.84555 4.37915 8.36563 3.6383 8.69604L2.8819 6.99358C4.04799 6.50536 5.44967 5.76452 6.55278 4.92959H8.4901V16.0519H6.12754ZM13.9235 16.3512C11.4498 16.3512 10.0488 14.8695 10.0488 13.1848C10.0488 11.7031 10.883 10.7741 11.9543 10.2214C10.9912 9.62284 10.3948 8.86644 10.3948 7.71665C10.3948 5.87342 12.0654 4.59695 13.9709 4.59695C15.9245 4.59695 17.5469 5.56005 17.5469 7.46476C17.5469 8.50194 17.012 9.38651 15.9719 10.017C16.9957 10.5052 17.8936 11.4505 17.8936 12.9159C17.8936 15.028 16.2082 16.3512 13.9235 16.3512V16.3512ZM13.7353 10.9949C13.01 11.2786 12.2854 12.0661 12.2854 12.9329C12.2854 13.8464 12.884 14.711 13.9553 14.711C15.011 14.711 15.5941 13.9701 15.5941 13.0878C15.5941 12.0817 14.6799 11.4675 13.7353 10.9949ZM14.002 6.20606C13.1352 6.20606 12.584 6.74095 12.584 7.51365C12.584 8.42712 13.4975 8.99535 14.2065 9.29168C14.7895 9.02424 15.42 8.29969 15.42 7.60626C15.4207 6.83578 14.9162 6.20606 14.002 6.20606V6.20606Z" fill="white"/>
</svg>
