<svg width="21" height="21" viewBox="0 0 21 21" fill="none" xmlns="http://www.w3.org/2000/svg">
<path d="M16.2749 0H4.72511C2.1155 0 0 2.1155 0 4.72511V16.2749C0 18.8845 2.1155 21 4.72511 21H16.2749C18.8845 21 21 18.8845 21 16.2749V4.72511C21 2.1155 18.8845 0 16.2749 0Z" fill="#FFCE00"/>
<path d="M10.9845 16.3193C8.16411 16.3193 5.4704 14.4606 5.4704 10.6148C5.4704 7.2914 7.40771 4.6288 10.9845 4.6288C12.3551 4.6288 13.3634 4.9118 14.1664 5.27482L13.3634 7.30844C12.6754 6.92288 11.9013 6.717 11.1127 6.70983C9.40873 6.70983 8.02557 7.82851 8.02557 10.5067C8.02557 13.0589 9.69544 14.2405 11.3023 14.2405C12.0833 14.2417 12.8504 14.0348 13.5249 13.6412L14.1864 15.5481C13.3352 16.0023 12.118 16.3193 10.9845 16.3193Z" fill="#25303B"/>
</svg>
