<svg width="21" height="21" viewBox="0 0 21 21" fill="none" xmlns="http://www.w3.org/2000/svg">
<g clip-path="url(#clip0_202_428)">
<path d="M19.9502 0H1.04978C0.470002 0 0 0.470001 0 1.04978V2.1003C0 2.68007 0.470002 3.15007 1.04978 3.15007H19.9502C20.53 3.15007 21 2.68007 21 2.1003V1.04978C21 0.470001 20.53 0 19.9502 0Z" fill="#00814F"/>
<path d="M19.9502 17.8499H1.04978C0.470002 17.8499 0 18.3199 0 18.8997V19.9502C0 20.53 0.470002 21 1.04978 21H19.9502C20.53 21 21 20.53 21 19.9502V18.8997C21 18.3199 20.53 17.8499 19.9502 17.8499Z" fill="#00814F"/>
<path d="M5.18074 7.96705V14.6013H3.39308V7.96705H0.906067V6.51129H7.66628V7.96705H5.18074ZM11.6179 14.7969C10.46 14.7969 9.81844 14.5109 9.27984 14.1902L9.9103 12.9403C10.3753 13.274 10.9309 13.458 11.5031 13.4678C12.4433 13.4678 13.027 12.9174 13.027 12.2299C13.027 11.3016 12.3173 10.9808 11.492 10.9808H10.6556V9.63988H11.5031C12.2936 9.63988 12.7863 9.22723 12.7863 8.60862C12.7863 8.09003 12.3973 7.6233 11.5491 7.6233C10.9935 7.62504 10.4585 7.8334 10.0481 8.20783L9.46357 7.01581C10.1496 6.55722 10.8964 6.29719 11.9158 6.29719C13.5656 6.29719 14.5087 7.28251 14.5087 8.36044C14.5087 9.19686 14.0642 9.8614 13.2019 10.1822V10.2051C14.0961 10.377 14.7725 11.0645 14.7725 12.1995C14.7695 13.6167 13.4975 14.7969 11.6179 14.7969ZM18.027 13.0737C17.6818 13.0737 17.275 12.9352 17.0424 12.7196V12.927H15.8674V6.535H17.0854V8.91904C17.3965 8.47009 17.7521 8.16782 18.3382 8.16782C19.5472 8.16782 20.048 9.45467 20.048 10.5689C20.048 11.6053 19.5035 13.0737 18.027 13.0737ZM17.8714 9.2213C17.767 9.22091 17.6636 9.24135 17.5671 9.28142C17.4707 9.32149 17.3832 9.38039 17.3099 9.45467C17.1024 9.65322 17.0765 9.78286 17.0765 10.0473V11.6113C17.0765 11.9306 17.2669 12.2151 17.8173 12.2151C18.5952 12.2151 18.7849 11.3772 18.7849 10.7474C18.7849 10.1177 18.6397 9.2213 17.8714 9.2213V9.2213Z" fill="#25303B"/>
</g>
<defs>
<clipPath id="clip0_202_428">
<rect width="21" height="21" fill="white"/>
</clipPath>
</defs>
</svg>
