<svg width="21" height="21" viewBox="0 0 21 21" fill="none" xmlns="http://www.w3.org/2000/svg">
<path d="M10.5 21C16.299 21 21 16.299 21 10.5C21 4.70101 16.299 0 10.5 0C4.70101 0 0 4.70101 0 10.5C0 16.299 4.70101 21 10.5 21Z" fill="#2F2F2F"/>
<path d="M8.16337 16.0645V4.93404H6.2231C5.11998 5.77045 3.71756 6.5113 2.54999 6.99951L3.30787 8.70346C4.04872 8.34044 5.11998 7.85149 5.79785 7.31585V16.0645H8.16337ZM17.9359 13.7471V12.0121H16.6275V4.93478H13.7264L9.40873 11.6817V13.7471H14.4213V16.0638H16.6283V13.7471H17.9359ZM14.4206 12.0121H11.3157L13.5849 8.45083C14.0294 7.75666 14.3428 7.0773 14.3894 6.88913H14.4206V12.0121Z" fill="white"/>
</svg>
