<svg width="21" height="21" viewBox="0 0 21 21" fill="none" xmlns="http://www.w3.org/2000/svg">
<path d="M10.5 21C16.299 21 21 16.299 21 10.5C21 4.70101 16.299 0 10.5 0C4.70101 0 0 4.70101 0 10.5C0 16.299 4.70101 21 10.5 21Z" fill="#2F2F2F"/>
<path d="M6.12754 16.0519V7.30991C5.44967 7.84555 4.37915 8.36562 3.6383 8.69604L2.8819 6.99357C4.04799 6.50536 5.44967 5.76451 6.55278 4.92958H8.4901V16.0519H6.12754ZM13.9235 16.3512C11.4498 16.3512 10.0488 14.8695 10.0488 13.1848C10.0488 11.7031 10.883 10.7741 11.9543 10.2214C10.9912 9.62283 10.3948 8.86643 10.3948 7.71664C10.3948 5.87342 12.0654 4.59694 13.9709 4.59694C15.9245 4.59694 17.5469 5.56004 17.5469 7.46475C17.5469 8.50193 17.012 9.3865 15.9719 10.017C16.9957 10.5052 17.8936 11.4505 17.8936 12.9159C17.8936 15.028 16.2082 16.3512 13.9235 16.3512V16.3512ZM13.7353 10.9949C13.01 11.2786 12.2854 12.0661 12.2854 12.9329C12.2854 13.8464 12.884 14.711 13.9553 14.711C15.011 14.711 15.5941 13.9701 15.5941 13.0878C15.5941 12.0817 14.6799 11.4675 13.7353 10.9949ZM14.002 6.20605C13.1352 6.20605 12.584 6.74095 12.584 7.51365C12.584 8.42711 13.4975 8.99534 14.2065 9.29168C14.7895 9.02423 15.42 8.29968 15.42 7.60625C15.4207 6.83577 14.9162 6.20605 14.002 6.20605V6.20605Z" fill="white"/>
</svg>
