<svg width="21" height="21" viewBox="0 0 21 21" fill="none" xmlns="http://www.w3.org/2000/svg">
<g clip-path="url(#clip0_112_824)">
<path d="M19.9502 0H1.04978C0.470002 0 0 0.470001 0 1.04978V2.1003C0 2.68007 0.470002 3.15007 1.04978 3.15007H19.9502C20.53 3.15007 21 2.68007 21 2.1003V1.04978C21 0.470001 20.53 0 19.9502 0Z" fill="#2F2F2F"/>
<path d="M19.9502 17.8499H1.04978C0.470002 17.8499 0 18.3199 0 18.8997V19.9502C0 20.53 0.470002 21 1.04978 21H19.9502C20.53 21 21 20.53 21 19.9502V18.8997C21 18.3199 20.53 17.8499 19.9502 17.8499Z" fill="#2F2F2F"/>
<path d="M7.74038 7.95742V14.5947H5.95272V7.95742H3.4657V6.50166H10.2237V7.95742H7.74038ZM14.6814 14.5947H12.8367C12.8367 13.5293 13.1226 12.8411 13.8331 11.5239L15.8045 7.85296H11.8736V6.50166H17.5351V7.81963C15.7585 10.9023 14.6814 13.3197 14.6814 14.5947Z" fill="#2F2F2F"/>
</g>
<defs>
<clipPath id="clip0_112_824">
<rect width="21" height="21" fill="white"/>
</clipPath>
</defs>
</svg>
