<svg width="21" height="21" viewBox="0 0 21 21" fill="none" xmlns="http://www.w3.org/2000/svg">
<g clip-path="url(#clip0_112_817)">
<path d="M19.9502 0H1.04978C0.470002 0 0 0.470001 0 1.04978V2.1003C0 2.68007 0.470002 3.15007 1.04978 3.15007H19.9502C20.53 3.15007 21 2.68007 21 2.1003V1.04978C21 0.470001 20.53 0 19.9502 0Z" fill="#2F2F2F"/>
<path d="M19.9502 17.8499H1.04978C0.470002 17.8499 0 18.3199 0 18.8997V19.9502C0 20.53 0.470002 21 1.04978 21H19.9502C20.53 21 21 20.53 21 19.9502V18.8997C21 18.3199 20.53 17.8499 19.9502 17.8499Z" fill="#2F2F2F"/>
<path d="M8.51973 7.95743V14.5947H6.73207V7.95743H4.24506V6.50241H11.0053V7.95743H8.51973ZM15.0392 14.5947V8.23228C14.5465 8.62196 13.7671 9.00054 13.2285 9.24057L12.6759 8.00114C13.5241 7.64553 14.5443 7.10768 15.3429 6.50018H16.7505V14.5947H15.0392Z" fill="#2F2F2F"/>
</g>
<defs>
<clipPath id="clip0_112_817">
<rect width="21" height="21" fill="white"/>
</clipPath>
</defs>
</svg>
