<svg width="21" height="21" viewBox="0 0 21 21" fill="none" xmlns="http://www.w3.org/2000/svg">
<g clip-path="url(#clip0_112_823)">
<path d="M19.9502 0H1.04978C0.470002 0 0 0.470001 0 1.04978V2.1003C0 2.68007 0.470002 3.15007 1.04978 3.15007H19.9502C20.53 3.15007 21 2.68007 21 2.1003V1.04978C21 0.470001 20.53 0 19.9502 0Z" fill="#2F2F2F"/>
<path d="M19.9502 17.8499H1.04978C0.470002 17.8499 0 18.3199 0 18.8997V19.9502C0 20.53 0.470002 21 1.04978 21H19.9502C20.53 21 21 20.53 21 19.9502V18.8997C21 18.3199 20.53 17.8499 19.9502 17.8499Z" fill="#2F2F2F"/>
<path d="M7.68257 7.95743V14.5947H5.89492V7.95743H3.4079V6.5024H10.1681V7.95743H7.68257ZM14.8169 14.7865C12.6048 14.7865 11.8143 13.2515 11.8143 11.109C11.8143 8.30118 13.1322 6.2846 15.7215 6.2846C16.1304 6.28405 16.538 6.33003 16.9365 6.42165L16.6846 7.7974C16.3292 7.66505 15.9525 7.59901 15.5733 7.60256C14.4383 7.60256 13.6138 8.50787 13.499 10.1348C13.7738 9.89399 14.3013 9.58506 15.1718 9.58506C16.5127 9.58506 17.5899 10.4667 17.5899 11.9795C17.5921 13.5953 16.5149 14.7865 14.8169 14.7865ZM14.6562 10.8564C14.1376 10.8564 13.7286 11.0519 13.5679 11.3009C13.4767 11.4379 13.4767 11.7587 13.4767 11.9995C13.4767 12.767 13.9212 13.5115 14.748 13.5115C15.5504 13.5115 15.9623 12.8589 15.9623 12.1602C15.9645 11.409 15.4607 10.8564 14.6584 10.8564H14.6562Z" fill="#2F2F2F"/>
</g>
<defs>
<clipPath id="clip0_112_823">
<rect width="21" height="21" fill="white"/>
</clipPath>
</defs>
</svg>
