<svg width="21" height="21" viewBox="0 0 21 21" fill="none" xmlns="http://www.w3.org/2000/svg">
<path d="M16.2749 0H4.72511C2.1155 0 0 2.1155 0 4.72511V16.2749C0 18.8845 2.1155 21 4.72511 21H16.2749C18.8845 21 21 18.8845 21 16.2749V4.72511C21 2.1155 18.8845 0 16.2749 0Z" fill="#2F2F2F"/>
<path d="M12.8677 16.0519L10.6452 12.2736C10.2829 11.6587 9.93619 11.6113 9.68208 11.6113H8.9642V16.0563H6.50311V4.92958H10.1103C12.6158 4.92958 14.8999 5.49633 14.8999 8.12781C14.8999 9.98659 13.4508 10.8215 12.4736 10.9793C12.9307 11.7824 14.8213 14.6028 15.8452 16.0519H12.8677ZM10.1577 6.83578H8.9642V9.77915H10.2977C11.243 9.77915 12.3462 9.49615 12.3462 8.26709C12.3484 6.99358 11.1349 6.83578 10.1577 6.83578V6.83578Z" fill="white"/>
</svg>
