<svg width="21" height="21" viewBox="0 0 21 21" fill="none" xmlns="http://www.w3.org/2000/svg">
<path d="M10.5 21C16.299 21 21 16.299 21 10.5C21 4.70101 16.299 0 10.5 0C4.70101 0 0 4.70101 0 10.5C0 16.299 4.70101 21 10.5 21Z" fill="#2F2F2F"/>
<path d="M5.86826 16.0519V7.30993C5.19039 7.84556 4.11913 8.36563 3.37828 8.69605L2.62262 6.9921C3.78797 6.50537 5.19039 5.76452 6.29721 4.92959H8.23082V16.0519H5.86826ZM13.9635 16.3201C10.926 16.3201 9.83623 14.2087 9.83623 11.2631C9.83623 7.40253 11.6476 4.63029 15.2081 4.63029C15.7701 4.62944 16.3304 4.69282 16.878 4.8192L16.5312 6.70984C16.0423 6.52964 15.5247 6.44002 15.0036 6.44536C13.4441 6.44536 12.3099 7.68998 12.1521 9.92733C12.5299 9.59617 13.2545 9.17093 14.4524 9.17093C16.2949 9.17093 17.7766 10.3844 17.7766 12.464C17.7803 14.6813 16.2986 16.3201 13.9635 16.3201V16.3201ZM13.7412 10.9164C13.0322 10.9164 12.4655 11.1838 12.244 11.5305C12.1188 11.7194 12.1188 12.161 12.1188 12.4936C12.1188 13.5493 12.7329 14.5732 13.8664 14.5732C14.9695 14.5732 15.537 13.6753 15.537 12.7144C15.5393 11.672 14.8458 10.9164 13.7434 10.9164H13.7412Z" fill="white"/>
</svg>
