<svg width="21" height="21" viewBox="0 0 21 21" fill="none" xmlns="http://www.w3.org/2000/svg">
<path d="M16.2749 0H4.72511C2.1155 0 0 2.1155 0 4.72511V16.2749C0 18.8845 2.1155 21 4.72511 21H16.2749C18.8845 21 21 18.8845 21 16.2749V4.72511C21 2.1155 18.8845 0 16.2749 0Z" fill="#2F2F2F"/>
<path d="M10.2399 16.0519H6.19122V4.92958H10.414C12.4936 4.92958 14.4472 5.49633 14.4472 7.74924C14.4472 8.89977 13.533 9.76582 12.6692 9.92362V9.95473C13.8345 10.1125 14.8124 11.026 14.8124 12.6018C14.8095 15.4096 12.3514 16.0519 10.2399 16.0519ZM9.86211 6.79132H8.64935V9.34354H9.89323C11.1853 9.34354 12.0365 9.13906 12.0365 8.0841C12.0365 7.05655 11.2801 6.78836 9.86211 6.78836V6.79132ZM9.9725 11.1082H8.64935V14.2116H10.0984C11.6579 14.2116 12.2721 13.7234 12.2721 12.5418C12.2721 11.3097 11.0912 11.1053 9.9725 11.1053V11.1082Z" fill="white"/>
</svg>
