<svg width="21" height="21" viewBox="0 0 21 21" fill="none" xmlns="http://www.w3.org/2000/svg">
<g clip-path="url(#clip0_112_830)">
<path d="M19.9502 0H1.04978C0.470002 0 0 0.470001 0 1.04978V2.1003C0 2.68007 0.470002 3.15007 1.04978 3.15007H19.9502C20.53 3.15007 21 2.68007 21 2.1003V1.04978C21 0.470001 20.53 0 19.9502 0Z" fill="#2F2F2F"/>
<path d="M19.9502 17.8499H1.04978C0.470002 17.8499 0 18.3199 0 18.8997V19.9502C0 20.53 0.470002 21 1.04978 21H19.9502C20.53 21 21 20.53 21 19.9502V18.8997C21 18.3199 20.53 17.8499 19.9502 17.8499Z" fill="#2F2F2F"/>
<path d="M5.20888 7.96112V14.5946H3.42122V7.96112H0.934204V6.50536H7.69516V7.96112H5.20888ZM11.7261 14.5946V8.23597C11.2334 8.62491 10.4541 9.00349 9.91547 9.24426L9.36576 8.00631C10.2133 7.65144 11.2334 7.11285 12.0328 6.50536H13.4404V14.5946H11.7261ZM16.915 14.7902C15.7578 14.7902 15.1162 14.5035 14.5776 14.1827L15.2073 12.9337C15.6725 13.2668 16.2281 13.4505 16.8001 13.4604C17.7403 13.4604 18.3241 12.9107 18.3241 12.2232C18.3241 11.2957 17.6143 10.9749 16.789 10.9749H15.9526V9.63098H16.8001C17.5906 9.63098 18.0833 9.21907 18.0833 8.59973C18.0833 8.08113 17.6943 7.6144 16.8461 7.6144C16.2905 7.61649 15.7555 7.82509 15.3451 8.19967L14.7606 7.00765C15.4481 6.54907 16.1934 6.28532 17.2128 6.28532C18.8627 6.28532 19.8058 7.27065 19.8058 8.34784C19.8058 9.18499 19.3612 9.84879 18.4996 10.1696V10.1933C19.3938 10.3644 20.0695 11.0527 20.0695 12.1862C20.0658 13.6101 18.7938 14.7902 16.915 14.7902Z" fill="#2F2F2F"/>
</g>
<defs>
<clipPath id="clip0_112_830">
<rect width="21" height="21" fill="white"/>
</clipPath>
</defs>
</svg>
