<svg width="21" height="21" viewBox="0 0 21 21" fill="none" xmlns="http://www.w3.org/2000/svg">
<path d="M16.2749 0H4.72511C2.1155 0 0 2.1155 0 4.72511V16.2749C0 18.8845 2.1155 21 4.72511 21H16.2749C18.8845 21 21 18.8845 21 16.2749V4.72511C21 2.1155 18.8845 0 16.2749 0Z" fill="#2F2F2F"/>
<path d="M10.52 16.3193C7.27359 16.3193 5.71411 14.8228 5.71411 11.8298V4.92958H8.17224V11.7513C8.17224 13.2159 8.81825 14.3191 10.5666 14.3191C12.3002 14.3191 12.8988 13.2159 12.8988 11.7513V4.92958H15.2932V11.8298C15.2895 14.8228 13.8086 16.3193 10.52 16.3193V16.3193Z" fill="white"/>
</svg>
