<svg xmlns="http://www.w3.org/2000/svg" width="256" height="256" viewBox="0 0 256 256" version="1.1">
	<path d="M 13.047 1.305 C 8.300 2.818, 2.332 9.055, 1.040 13.852 C 0.308 16.569, 0.057 52.851, 0.237 129.654 C 0.499 240.892, 0.511 241.522, 2.589 245.500 C 3.738 247.700, 6.589 250.850, 8.925 252.500 L 13.172 255.500 125.336 255.788 C 211.165 256.008, 238.540 255.789, 241.930 254.857 C 247.236 253.398, 253.798 247.259, 254.660 242.948 C 254.989 241.304, 255.650 239.716, 256.129 239.420 C 256.615 239.120, 257 189.395, 257 126.882 C 257 59.084, 256.637 15.106, 256.081 15.450 C 255.576 15.762, 254.855 14.618, 254.480 12.907 C 253.564 8.737, 247.030 2.380, 242.315 1.071 C 236.882 -0.438, 17.812 -0.214, 13.047 1.305 M 0.483 128 C 0.483 189.875, 0.603 215.188, 0.750 184.250 C 0.897 153.313, 0.897 102.688, 0.750 71.750 C 0.603 40.813, 0.483 66.125, 0.483 128 M 123.239 49.335 C 113.989 52.689, 108.712 61.019, 108.612 72.424 C 108.509 84.168, 113.690 90.498, 123.292 90.359 C 132.458 90.227, 142.093 83.160, 145.078 74.381 C 150.931 57.163, 139.092 43.585, 123.239 49.335 M 188.910 87.488 C 180.271 92.185, 148.126 99.691, 124.500 102.529 C 99.013 105.591, 86.678 110.364, 75.475 121.500 C 70.272 126.671, 62.057 139.390, 63.188 140.521 C 63.397 140.730, 68.278 138.497, 74.034 135.559 C 92.253 126.258, 106.285 122.401, 130.335 120.083 C 148.874 118.297, 165.016 111.206, 180.214 98.172 C 185.816 93.367, 192.965 85.907, 191.839 86.040 C 191.653 86.062, 190.335 86.714, 188.910 87.488 M 121.946 138.658 C 114.594 142.247, 97.302 159.748, 89.495 171.500 C 86.206 176.450, 78.227 187.588, 71.762 196.250 L 60.008 212 63.854 212 C 69.284 212, 74.787 207.678, 82.028 197.730 C 98.110 175.632, 102.720 169.686, 108.377 163.743 C 111.746 160.204, 115.974 156.548, 117.773 155.618 C 120.830 154.037, 121.271 154.035, 124.555 155.593 C 128.785 157.601, 134.033 163.710, 144.582 178.908 C 155.424 194.528, 164.547 204.118, 172.208 207.946 C 178.068 210.874, 178.847 211, 191.126 211 L 203.932 211 197.134 202.527 C 193.395 197.867, 182.776 183.226, 173.535 169.991 C 164.295 156.757, 154.942 144.394, 152.751 142.519 C 144.560 135.508, 131.702 133.896, 121.946 138.658" stroke="none" fill="black" fill-rule="evenodd"/>
</svg>